<?xml version="1.0" encoding="utf-8"?>
<!-- Generator: Adobe Illustrator 25.2.2, SVG Export Plug-In . SVG Version: 6.00 Build 0)  -->
<svg version="1.1" id="Layer_2" xmlns="http://www.w3.org/2000/svg" xmlns:xlink="http://www.w3.org/1999/xlink" x="0px" y="0px"
	 viewBox="0 0 2196.74 1034.81" style="enable-background:new 0 0 2196.74 1034.81;" xml:space="preserve">
<style type="text/css">
	.st0{fill:none;stroke:#000000;stroke-miterlimit:10;}
</style>
<path class="st0" d="M0,198.37c0,0,645.98-36.89,717.94,298.08c49.04,228.29-164.69,346.78-231.85,311.36
	c-52.39-27.63-78.35-112.15,14.39-138.71c92.74-26.56,284.07,61.28,310.2,165.27c25.58,101.82-87.94,33.94-72.53-33.56
	c9.38-41.07,61.34-171.56,227.63-258.62c106.62-55.82,433.32-150.52,580.43,70.83c122.67,184.57,59.73,340.29,43.17,351.2
	c-67.16,44.27-88.98-122.72-87.97-154.39c3.22-100.9,115.15-306.01,300.63-264.69s361.37-50.17,394.71-407.28"/>
</svg>
